<svg id="visual" viewBox="0 0 960 540" width="960" height="540" xmlns="http://www.w3.org/2000/svg" xmlns:xlink="http://www.w3.org/1999/xlink" version="1.1"><rect x="0" y="0" width="960" height="540" fill="#002233"></rect><path d="M0 403L22.8 399.2C45.7 395.3 91.3 387.7 137 396C182.7 404.3 228.3 428.7 274 433C319.7 437.3 365.3 421.7 411.2 422.8C457 424 503 442 548.8 451C594.7 460 640.3 460 686 450.3C731.7 440.7 777.3 421.3 823 403.7C868.7 386 914.3 370 937.2 362L960 354L960 541L937.2 541C914.3 541 868.7 541 823 541C777.3 541 731.7 541 686 541C640.3 541 594.7 541 548.8 541C503 541 457 541 411.2 541C365.3 541 319.7 541 274 541C228.3 541 182.7 541 137 541C91.3 541 45.7 541 22.8 541L0 541Z" fill="#0066FF" stroke-linecap="round" stroke-linejoin="miter"></path></svg>